<?xml version="1.0" encoding="utf-8"?>
<!-- Generator: Adobe Illustrator 27.5.0, SVG Export Plug-In . SVG Version: 6.00 Build 0)  -->
<svg version="1.1" id="Layer_1" xmlns="http://www.w3.org/2000/svg" xmlns:xlink="http://www.w3.org/1999/xlink" x="0px" y="0px"
	 viewBox="0 0 200 200" style="enable-background:new 0 0 200 200;" xml:space="preserve">
<style type="text/css">
	.st0{fill:#E6B37A;}
</style>
<rect class="st0" width="200" height="200"/>
<g>
	<g>
		<path d="M48.6,122.5c-6.5,0-11.9-1.4-16.3-4.3c-4.4-2.9-7.8-6.8-10.1-11.9s-3.4-10.9-3.4-17.6s1.1-12.5,3.4-17.6
			c2.3-5.1,5.6-9,10.1-11.9c4.4-2.9,9.9-4.3,16.3-4.3c7.5,0,13.7,1.9,18.5,5.8c4.8,3.9,8,9,9.8,15.5L70.1,78
			c-1.4-5.1-3.9-9.2-7.4-12.2c-3.6-3-8.3-4.5-14.1-4.5c-5.1,0-9.3,1.2-12.6,3.5c-3.4,2.3-5.9,5.5-7.6,9.7c-1.7,4.1-2.6,8.9-2.6,14.3
			c0,5.4,0.8,10.2,2.5,14.3s4.2,7.3,7.7,9.7c3.4,2.3,7.6,3.5,12.7,3.5c5.8,0,10.5-1.5,14.1-4.5c3.6-3,6-7.1,7.4-12.2l6.8,1.8
			c-1.8,6.5-5,11.6-9.8,15.5C62.3,120.6,56.1,122.5,48.6,122.5z"/>
		<path d="M111.9,122.5c-4.5,0-8.6-0.8-12.2-2.3c-3.6-1.5-6.6-3.7-9-6.5c-2.4-2.8-3.9-6.1-4.6-9.9l6.8-1.1c1.1,4.2,3.4,7.5,6.8,9.9
			c3.5,2.4,7.6,3.6,12.5,3.6c3.2,0,6-0.5,8.6-1.5c2.5-1,4.5-2.4,5.9-4.3c1.4-1.9,2.2-4.1,2.2-6.6c0-1.7-0.3-3.1-0.9-4.3
			c-0.6-1.2-1.4-2.2-2.4-2.9c-1-0.8-2.1-1.4-3.2-2c-1.2-0.5-2.3-1-3.4-1.3l-16.4-4.9c-2-0.6-3.8-1.3-5.5-2.2
			c-1.7-0.9-3.1-1.9-4.4-3.2c-1.2-1.2-2.2-2.7-2.9-4.4s-1-3.6-1-5.8c0-3.7,1-6.8,2.9-9.5c1.9-2.7,4.5-4.7,7.9-6.2
			c3.3-1.4,7.1-2.1,11.4-2.1c4.3,0,8.2,0.8,11.6,2.3s6.2,3.7,8.4,6.5c2.2,2.8,3.7,6.2,4.4,10.1l-6.9,1.3c-0.5-2.8-1.5-5.3-3.1-7.3
			c-1.6-2.1-3.7-3.7-6.2-4.8c-2.5-1.1-5.3-1.7-8.3-1.7c-2.9,0-5.5,0.5-7.8,1.5c-2.3,1-4.1,2.3-5.4,4c-1.3,1.7-2,3.6-2,5.8
			c0,2.2,0.6,3.9,1.8,5.3c1.2,1.3,2.7,2.4,4.5,3.1c1.8,0.8,3.5,1.4,5.2,1.8l12.7,3.7c1.3,0.4,2.9,0.9,4.7,1.6
			c1.8,0.7,3.5,1.6,5.2,2.9c1.7,1.2,3.1,2.9,4.2,4.9c1.1,2,1.7,4.6,1.7,7.7c0,3-0.6,5.7-1.8,8.1c-1.2,2.4-2.8,4.4-5,6
			c-2.1,1.6-4.7,2.9-7.5,3.7C118.5,122.1,115.3,122.5,111.9,122.5z"/>
		<path d="M144.9,121.2V56.4h37.2V63h-30.6v22.5h25.2V92h-25.2v29.1H144.9z"/>
	</g>
	<path d="M17.5,152c26.7-5.5,53.8-9.3,81-11.2c13.2-0.9,26.4-1.4,39.6-1.5c13.3-0.1,37.9-0.3,38.9,2.7c2,6.1,10.7-9.7,4.3-10.8
		c-13.2-2.3-27-1.9-40.4-1.9c-14.2,0-28.4,0.5-42.5,1.5c-28.1,2-56.1,5.9-83.6,11.5C8.5,143.6,11.2,153.3,17.5,152L17.5,152z"/>
</g>
</svg>
