<svg width="63" height="15" viewBox="0 0 63 15" fill="none" xmlns="http://www.w3.org/2000/svg">
<path d="M9.75022 6.99979C10.1644 6.99979 10.5004 7.33546 10.5004 7.74993C10.5004 8.16408 10.1647 8.50008 9.75022 8.50008C9.33607 8.50008 9.00008 8.16441 9.00008 7.74993C9.00008 7.33579 9.33575 6.99979 9.75022 6.99979Z" fill="black"/>
<path d="M18.0002 5.49988H16.5002V2.49996H13.5003V1H9.00041V3.99992H7.50045V2.49996H2.99992V6.99983H0V13H7.50012V11.5H12V13H19.5001V5.49988H18.0002ZM4.49988 11.5H1.49996V8.50012H2.99992V10.0001H4.49988V3.99992H5.99984V11.5H4.49988ZM10.5 10.0001H7.50012V5.50021H10.5V2.50029H12V10.0004H10.5V10.0001ZM18.0002 8.50012V11.5H16.5002V8.50012H15.0002V11.5H13.5003V3.99992H15.0002V6.99983H18.0002V8.49979V8.50012Z" fill="black"/>
<path d="M25.47 1.848V5.382C25.47 6.39 24.888 6.744 24.192 6.972L23.958 6.342C24.498 6.132 24.588 5.856 24.588 5.352V1.848H25.47ZM27.6447 2.724C28.5927 2.724 29.1627 3.354 29.1627 4.41C29.1627 5.418 28.5927 6.096 27.6387 6.096C26.6907 6.096 26.1147 5.466 26.1147 4.41C26.1147 3.396 26.6847 2.724 27.6447 2.724ZM27.6447 3.36C27.2187 3.36 27.0027 3.684 27.0027 4.41C27.0027 5.142 27.2187 5.46 27.6387 5.46C28.0587 5.46 28.2747 5.136 28.2747 4.41C28.2747 3.678 28.0587 3.36 27.6447 3.36ZM32.3966 2.82V6H31.6586L31.6166 5.574C31.3826 5.928 31.0766 6.096 30.6506 6.096C30.0626 6.096 29.7626 5.718 29.7626 5.106V2.82H30.6146V4.998C30.6146 5.346 30.7286 5.46 30.9626 5.46C31.1966 5.46 31.3946 5.304 31.5446 5.046V2.82H32.3966ZM34.8645 2.73C34.9785 2.73 35.0805 2.748 35.1825 2.778L35.0445 3.6C34.9425 3.576 34.8645 3.558 34.7565 3.558C34.3665 3.558 34.1805 3.852 34.0725 4.374V6H33.2205V2.82H33.9645L34.0365 3.438C34.1865 2.994 34.4985 2.73 34.8645 2.73ZM37.3754 2.724C37.9334 2.724 38.2694 3.084 38.2694 3.684V6H37.4174V3.828C37.4174 3.462 37.2794 3.36 37.0694 3.36C36.8234 3.36 36.6314 3.522 36.4514 3.804V6H35.5994V2.82H36.3434L36.4094 3.222C36.6614 2.904 36.9734 2.724 37.3754 2.724ZM41.4806 5.118C41.4806 5.376 41.5586 5.466 41.7086 5.52L41.5286 6.084C41.1686 6.048 40.9286 5.934 40.7966 5.622C40.5686 5.964 40.2206 6.096 39.8426 6.096C39.2066 6.096 38.8106 5.688 38.8106 5.112C38.8106 4.416 39.3386 4.038 40.2746 4.038H40.6406V3.882C40.6406 3.486 40.4726 3.36 40.0766 3.36C39.8666 3.36 39.5546 3.42 39.2366 3.528L39.0386 2.958C39.4346 2.802 39.8546 2.724 40.2146 2.724C41.0966 2.724 41.4806 3.114 41.4806 3.834V5.118ZM40.0826 5.484C40.3226 5.484 40.5146 5.358 40.6406 5.13V4.524H40.3646C39.8966 4.524 39.6686 4.692 39.6686 5.04C39.6686 5.322 39.8126 5.484 40.0826 5.484ZM43.0651 6.096C42.5491 6.096 42.2431 5.784 42.2431 5.232V1.554L43.0951 1.458V5.208C43.0951 5.346 43.1431 5.418 43.2691 5.418C43.3351 5.418 43.3891 5.406 43.4371 5.382L43.6111 5.988C43.4731 6.048 43.2811 6.096 43.0651 6.096ZM46.881 2.724C47.829 2.724 48.399 3.354 48.399 4.41C48.399 5.418 47.829 6.096 46.875 6.096C45.927 6.096 45.351 5.466 45.351 4.41C45.351 3.396 45.921 2.724 46.881 2.724ZM46.881 3.36C46.455 3.36 46.239 3.684 46.239 4.41C46.239 5.142 46.455 5.46 46.875 5.46C47.295 5.46 47.511 5.136 47.511 4.41C47.511 3.678 47.295 3.36 46.881 3.36ZM50.409 2.094C50.121 2.094 50.007 2.226 50.007 2.526V2.82H50.763L50.667 3.42H50.007V6H49.155V3.42H48.651V2.82H49.155V2.502C49.155 1.914 49.545 1.458 50.319 1.458C50.643 1.458 50.925 1.536 51.159 1.65L50.925 2.214C50.733 2.124 50.559 2.094 50.409 2.094ZM25.524 8.848C26.622 8.848 27.666 9.19 27.666 10.906C27.666 12.58 26.646 13 25.626 13H24.438V8.848H25.524ZM25.662 9.496H25.32V12.352H25.68C26.286 12.352 26.748 12.07 26.748 10.906C26.748 9.718 26.262 9.496 25.662 9.496ZM28.7363 8.182C29.0423 8.182 29.2583 8.398 29.2583 8.68C29.2583 8.962 29.0423 9.178 28.7363 9.178C28.4303 9.178 28.2203 8.962 28.2203 8.68C28.2203 8.398 28.4303 8.182 28.7363 8.182ZM29.1623 9.82V13H28.3103V9.82H29.1623ZM32.6321 9.34L32.8421 9.994C32.6081 10.084 32.3081 10.114 31.9241 10.114C32.3141 10.288 32.5121 10.528 32.5121 10.93C32.5121 11.548 32.0141 11.998 31.2041 11.998C31.0661 11.998 30.9461 11.986 30.8321 11.956C30.7601 12.004 30.7121 12.082 30.7121 12.166C30.7121 12.274 30.7661 12.376 31.0781 12.376H31.5641C32.2841 12.376 32.7461 12.76 32.7461 13.288C32.7461 13.93 32.1881 14.32 31.1261 14.32C29.9621 14.32 29.6441 13.942 29.6441 13.306H30.4061C30.4061 13.606 30.5381 13.738 31.1441 13.738C31.7321 13.738 31.8881 13.576 31.8881 13.348C31.8881 13.132 31.7261 13 31.3901 13H30.9221C30.2561 13 29.9801 12.712 29.9801 12.376C29.9801 12.148 30.1241 11.926 30.3521 11.782C29.9561 11.566 29.7881 11.284 29.7881 10.876C29.7881 10.174 30.3461 9.724 31.1441 9.724C31.8761 9.742 32.2481 9.556 32.6321 9.34ZM31.1621 10.294C30.8381 10.294 30.6401 10.516 30.6401 10.864C30.6401 11.23 30.8441 11.446 31.1681 11.446C31.5101 11.446 31.6901 11.242 31.6901 10.852C31.6901 10.474 31.5161 10.294 31.1621 10.294ZM33.6758 8.182C33.9818 8.182 34.1978 8.398 34.1978 8.68C34.1978 8.962 33.9818 9.178 33.6758 9.178C33.3698 9.178 33.1598 8.962 33.1598 8.68C33.1598 8.398 33.3698 8.182 33.6758 8.182ZM34.1018 9.82V13H33.2498V9.82H34.1018ZM36.5456 12.31L36.8396 12.85C36.6056 13.012 36.2936 13.096 36.0116 13.096C35.3516 13.09 35.0156 12.712 35.0156 12.004V10.42H34.5416V9.82H35.0156V9.124L35.8676 9.022V9.82H36.5996L36.5156 10.42H35.8676V11.986C35.8676 12.298 35.9696 12.418 36.1856 12.418C36.2996 12.418 36.4136 12.382 36.5456 12.31ZM39.6056 12.118C39.6056 12.376 39.6836 12.466 39.8336 12.52L39.6536 13.084C39.2936 13.048 39.0536 12.934 38.9216 12.622C38.6936 12.964 38.3456 13.096 37.9676 13.096C37.3316 13.096 36.9356 12.688 36.9356 12.112C36.9356 11.416 37.4636 11.038 38.3996 11.038H38.7656V10.882C38.7656 10.486 38.5976 10.36 38.2016 10.36C37.9916 10.36 37.6796 10.42 37.3616 10.528L37.1636 9.958C37.5596 9.802 37.9796 9.724 38.3396 9.724C39.2216 9.724 39.6056 10.114 39.6056 10.834V12.118ZM38.2076 12.484C38.4476 12.484 38.6396 12.358 38.7656 12.13V11.524H38.4896C38.0216 11.524 37.7936 11.692 37.7936 12.04C37.7936 12.322 37.9376 12.484 38.2076 12.484ZM41.1901 13.096C40.6741 13.096 40.3681 12.784 40.3681 12.232V8.554L41.2201 8.458V12.208C41.2201 12.346 41.2681 12.418 41.3941 12.418C41.4601 12.418 41.5141 12.406 41.5621 12.382L41.7361 12.988C41.5981 13.048 41.4061 13.096 41.1901 13.096ZM45.942 13V11.182H44.568V13H43.686V8.848H44.568V10.486H45.942V8.848H46.824V13H45.942ZM48.0957 8.182C48.4017 8.182 48.6177 8.398 48.6177 8.68C48.6177 8.962 48.4017 9.178 48.0957 9.178C47.7897 9.178 47.5797 8.962 47.5797 8.68C47.5797 8.398 47.7897 8.182 48.0957 8.182ZM48.5217 9.82V13H47.6697V9.82H48.5217ZM50.4135 9.724C50.8755 9.724 51.2655 9.868 51.5655 10.108L51.2415 10.594C50.9835 10.432 50.7255 10.342 50.4495 10.342C50.1675 10.342 50.0115 10.456 50.0115 10.63C50.0115 10.816 50.1195 10.9 50.6775 11.062C51.3135 11.236 51.6735 11.5 51.6735 12.064C51.6735 12.724 51.0555 13.096 50.2995 13.096C49.7475 13.096 49.3035 12.91 49.0035 12.634L49.4235 12.166C49.6635 12.352 49.9575 12.478 50.2755 12.478C50.5935 12.478 50.7975 12.346 50.7975 12.13C50.7975 11.89 50.6835 11.812 50.0955 11.65C49.4535 11.47 49.1535 11.152 49.1535 10.672C49.1535 10.132 49.6455 9.724 50.4135 9.724ZM53.8249 12.31L54.1189 12.85C53.8849 13.012 53.5729 13.096 53.2909 13.096C52.6309 13.09 52.2949 12.712 52.2949 12.004V10.42H51.8209V9.82H52.2949V9.124L53.1469 9.022V9.82H53.8789L53.7949 10.42H53.1469V11.986C53.1469 12.298 53.2489 12.418 53.4649 12.418C53.5789 12.418 53.6929 12.382 53.8249 12.31ZM55.7346 9.724C56.6826 9.724 57.2526 10.354 57.2526 11.41C57.2526 12.418 56.6826 13.096 55.7286 13.096C54.7806 13.096 54.2046 12.466 54.2046 11.41C54.2046 10.396 54.7746 9.724 55.7346 9.724ZM55.7346 10.36C55.3086 10.36 55.0926 10.684 55.0926 11.41C55.0926 12.142 55.3086 12.46 55.7286 12.46C56.1486 12.46 56.3646 12.136 56.3646 11.41C56.3646 10.678 56.1486 10.36 55.7346 10.36ZM59.5325 9.73C59.6465 9.73 59.7485 9.748 59.8505 9.778L59.7125 10.6C59.6105 10.576 59.5325 10.558 59.4245 10.558C59.0345 10.558 58.8485 10.852 58.7405 11.374V13H57.8885V9.82H58.6325L58.7045 10.438C58.8545 9.994 59.1665 9.73 59.5325 9.73ZM62.9434 9.82L61.9174 13.006C61.6714 13.78 61.1734 14.254 60.2014 14.32L60.1114 13.708C60.7414 13.624 60.9574 13.432 61.1314 13H60.8374L59.8474 9.82H60.7534L61.3894 12.448L62.0614 9.82H62.9434Z" fill="black"/>
</svg>
